<?xml version="1.0" standalone="no"?>
<!DOCTYPE svg PUBLIC "-//W3C//DTD SVG 20010904//EN"
 "http://www.w3.org/TR/2001/REC-SVG-20010904/DTD/svg10.dtd">
<svg version="1.0" xmlns="http://www.w3.org/2000/svg"
 width="136.000000pt" height="163.000000pt" viewBox="0 0 136.000000 163.000000"
 preserveAspectRatio="xMidYMid meet">
<metadata>
Created by potrace 1.10, written by Peter Selinger 2001-2011
</metadata>
<g transform="translate(0.000000,163.000000) scale(0.100000,-0.100000)"
fill="#000000" stroke="none">
<path d="M445 1602 c-331 -47 -413 -84 -359 -160 8 -12 24 -22 34 -22 10 0 20
-4 22 -10 3 -9 25 -13 138 -26 25 -3 61 -7 80 -10 143 -17 334 -19 451 -5 103
14 169 41 190 79 16 28 16 31 -1 60 -21 34 -76 66 -154 89 -65 19 -282 22
-401 5z m102 -8 c-3 -3 -12 -4 -19 -1 -8 3 -5 6 6 6 11 1 17 -2 13 -5z m301
-18 c47 -11 115 -50 120 -68 2 -10 8 -18 12 -18 4 0 5 -11 2 -25 -3 -16 -11
-25 -24 -25 -10 0 -17 -4 -13 -9 3 -6 -3 -10 -12 -9 -10 0 -45 -7 -77 -16 -79
-22 -412 -23 -434 -2 -3 3 -30 6 -61 7 -92 1 -214 28 -240 53 -27 28 -10 37
169 87 34 9 57 11 300 25 63 4 116 7 117 8 5 4 116 -2 141 -8z"/>
<path d="M9 1443 c-1 -4 -1 -11 -1 -14 3 -24 14 -191 17 -268 3 -52 8 -97 13
-100 9 -7 12 -42 3 -37 -3 2 -5 -164 -5 -369 2 -311 4 -378 17 -406 9 -19 18
-44 22 -56 9 -34 107 -108 173 -133 150 -58 335 -67 496 -25 221 57 285 128
301 331 5 56 3 84 -4 89 -26 15 5 24 75 20 66 -4 82 -1 130 23 36 17 57 34 60
49 4 13 10 23 15 23 5 0 9 7 9 15 0 8 4 15 9 15 4 0 7 12 7 28 -1 15 3 33 9
41 7 11 7 13 -2 7 -7 -4 -13 -2 -13 3 0 6 5 11 11 11 5 0 8 4 4 9 -3 6 -8 95
-11 198 -6 227 -9 257 -38 356 -12 42 -29 71 -59 102 -52 54 -99 68 -171 53
-28 -6 -59 -11 -68 -11 -10 -1 -18 -5 -18 -9 0 -4 -7 -8 -15 -8 -20 0 -19 -17
1 -28 19 -11 17 -119 -4 -115 -17 4 -15 -24 2 -30 11 -4 15 -24 15 -69 0 -35
3 -110 7 -168 3 -58 7 -148 9 -200 3 -114 3 -110 14 -110 9 0 6 182 -4 265 -2
22 -8 95 -11 161 l-6 122 26 0 c34 -1 103 -65 111 -104 3 -16 11 -37 16 -47
11 -21 16 -75 23 -248 l5 -117 -47 -18 c-25 -9 -52 -17 -60 -17 -7 0 -9 -4 -5
-8 10 -10 82 8 107 27 11 8 22 29 24 47 5 43 8 160 3 170 -2 5 -4 43 -6 85 -1
45 -10 96 -20 122 -26 64 -81 119 -128 126 -20 4 -39 10 -41 13 -3 4 -6 33 -7
66 l-3 60 50 11 c27 7 58 15 68 20 13 5 17 4 13 -3 -4 -7 0 -9 11 -7 21 6 78
-31 103 -66 10 -14 24 -47 30 -75 6 -27 14 -57 17 -65 8 -27 18 -124 28 -285
14 -231 11 -264 -28 -342 -15 -31 -93 -65 -147 -64 -92 0 -95 2 -103 50 -4 24
-5 47 -2 52 7 13 -7 60 -17 53 -5 -3 -8 -27 -8 -53 1 -27 -1 -53 -5 -59 -3 -6
-2 -13 2 -16 13 -8 7 -206 -8 -252 -22 -73 -33 -89 -74 -121 -44 -33 -148 -77
-206 -87 -19 -4 -46 -9 -60 -12 -30 -6 -182 -5 -189 1 -2 3 -10 0 -17 -5 -8
-8 -16 -7 -25 2 -8 7 -18 13 -24 13 -34 0 -140 29 -179 49 -58 29 -118 97
-138 156 -13 38 -20 140 -19 275 1 107 0 147 0 180 -1 22 0 66 2 98 2 31 2 57
-1 57 -3 0 -6 39 -7 88 -1 102 -9 220 -23 352 -6 52 -9 104 -8 114 2 10 -3 21
-9 23 -7 3 -14 1 -14 -4z"/>
<path d="M240 1350 c0 -5 5 -10 11 -10 5 0 7 5 4 10 -3 6 -8 10 -11 10 -2 0
-4 -4 -4 -10z"/>
<path d="M125 1306 c4 -18 8 -197 10 -397 4 -499 26 -620 116 -652 28 -9 30
62 14 433 -4 85 -8 264 -9 397 0 134 -4 243 -8 243 -4 0 -7 -37 -8 -82 -4
-290 -3 -386 4 -396 4 -7 3 -12 -1 -12 -5 0 -9 -38 -8 -84 0 -46 3 -82 8 -79
4 2 7 -1 7 -6 0 -6 -5 -11 -11 -11 -5 0 -7 -5 -4 -10 4 -6 8 -88 10 -181 4
-170 4 -171 -16 -153 -11 10 -18 22 -16 28 2 6 0 22 -5 36 -19 50 -29 117 -33
230 -3 63 -8 153 -10 200 -3 47 -5 94 -4 105 2 56 1 123 -5 250 -4 77 -7 148
-7 158 0 9 -7 17 -15 17 -11 0 -13 -8 -9 -34z"/>
<path d="M795 1289 c17 -5 35 -7 41 -5 8 3 12 -21 13 -72 2 -43 4 -97 7 -122
2 -25 5 -82 5 -128 1 -45 6 -85 10 -88 12 -7 14 114 4 191 -3 17 -7 72 -10
123 -3 52 -7 98 -11 103 -3 5 -24 9 -47 8 -41 -1 -41 -1 -12 -10z"/>
<path d="M717 1273 c-4 -8 -8 -81 -9 -173 -1 -25 3 -58 7 -74 6 -23 5 -27 -5
-21 -9 6 -11 4 -5 -5 8 -13 12 -78 20 -343 2 -81 7 -152 10 -157 3 -5 1 -11
-4 -15 -10 -6 -14 -55 -11 -150 1 -43 5 -54 33 -78 18 -15 40 -30 50 -33 26
-8 64 20 87 67 20 38 21 52 15 242 -3 111 -7 213 -9 227 -2 14 -4 42 -5 63 -1
23 -6 37 -14 37 -10 0 -12 -15 -10 -52 1 -29 5 -111 8 -183 4 -71 8 -152 9
-180 4 -83 -11 -141 -47 -171 l-31 -26 -24 28 c-36 44 -39 59 -26 146 12 83
11 247 -3 348 -15 118 -23 473 -11 481 5 3 2 11 -6 18 -8 7 -16 8 -19 4z"/>
<path d="M408 1173 c-6 -119 -2 -762 4 -783 3 -8 8 -37 13 -63 4 -28 17 -59
30 -73 20 -21 30 -24 72 -21 103 8 108 24 98 272 -4 88 -7 176 -7 195 1 27 -1
31 -7 15 -5 -11 -6 -58 -4 -105 9 -179 8 -247 -3 -298 -12 -51 -24 -79 -24
-54 0 8 -7 9 -24 2 -15 -5 -27 -5 -34 2 -6 6 -12 6 -16 -1 -13 -20 -48 7 -40
31 4 15 3 18 -7 13 -9 -6 -11 -4 -6 7 3 9 0 43 -8 75 -8 32 -12 80 -10 107 1
27 -1 61 -5 77 -5 17 -5 31 1 34 5 4 6 14 1 23 -4 9 -6 31 -4 47 6 47 13 306
13 443 l-1 123 22 -15 c12 -9 30 -16 40 -16 22 0 58 -38 58 -62 0 -10 3 -18 8
-18 4 0 8 -49 10 -110 1 -60 6 -137 10 -170 5 -35 5 -60 0 -60 -5 0 -6 -4 -3
-10 3 -5 13 -10 20 -10 12 0 13 14 9 73 -10 128 -11 142 -19 171 -5 18 -4 27
1 23 15 -9 5 104 -13 140 -11 24 -31 40 -79 63 -35 16 -70 30 -78 30 -10 0
-15 -24 -18 -97z"/>
</g>
</svg>
