<?xml version="1.0" standalone="no"?>
<!DOCTYPE svg PUBLIC "-//W3C//DTD SVG 20010904//EN"
 "http://www.w3.org/TR/2001/REC-SVG-20010904/DTD/svg10.dtd">
<svg version="1.0" xmlns="http://www.w3.org/2000/svg"
 width="300.000000pt" height="100.000000pt" viewBox="0 0 300.000000 100.000000"
 preserveAspectRatio="xMidYMid meet">
<metadata>
Created by potrace 1.10, written by Peter Selinger 2001-2011
</metadata>
<g transform="translate(0.000000,100.000000) scale(0.100000,-0.100000)"
fill="#000000" stroke="none">
<path d="M943 971 c-92 -57 -138 -300 -85 -453 52 -150 189 -194 254 -81 33
55 51 168 43 272 -9 123 -34 190 -88 235 -56 45 -84 51 -124 27z m88 -54 c46
-30 67 -78 80 -181 11 -94 1 -195 -27 -265 -39 -99 -148 -60 -189 68 -27 83
-22 224 10 303 42 102 65 116 126 75z"/>
<path d="M725 958 c-3 -8 -4 -141 -3 -296 2 -155 1 -282 -2 -282 -17 1 -36 26
-71 91 -67 126 -165 332 -189 396 -27 74 -52 102 -75 83 -11 -9 -15 -33 -15
-94 0 -78 -16 -226 -46 -410 -9 -58 -11 -93 -4 -100 17 -17 37 13 43 67 4 28
14 102 23 162 9 61 18 155 20 209 2 54 5 101 8 103 2 2 7 -12 10 -32 10 -54
215 -468 247 -500 8 -8 30 -16 49 -17 l35 -3 0 314 c0 243 -3 315 -12 318 -7
3 -15 -2 -18 -9z"/>
<path d="M2026 962 c-32 -52 -77 -149 -92 -199 -10 -35 -21 -63 -24 -63 -3 0
-13 15 -21 33 -8 17 -34 69 -58 115 -36 68 -47 82 -67 82 -13 0 -24 -3 -25 -7
-2 -18 -8 -64 -23 -163 -8 -58 -16 -173 -16 -257 0 -146 1 -153 20 -153 19 0
20 7 21 128 0 161 19 365 34 380 2 2 25 -40 52 -93 56 -113 78 -141 98 -125 8
6 28 53 45 103 17 51 39 108 49 126 l19 35 6 -65 c23 -220 58 -474 67 -491 19
-35 56 -13 39 22 -9 19 -24 125 -46 315 -24 219 -36 279 -56 283 -9 2 -19 -1
-22 -6z"/>
<path d="M2776 951 c-10 -11 -20 -37 -23 -60 -7 -54 22 -100 86 -135 27 -14
61 -40 75 -57 23 -27 26 -39 26 -113 0 -65 -5 -91 -22 -126 -41 -80 -131 -114
-186 -72 -18 14 -24 29 -25 67 -2 38 -6 51 -19 53 -41 8 -34 -104 9 -144 74
-68 196 -36 253 66 20 37 25 62 28 140 4 124 -8 149 -105 212 -76 51 -96 85
-73 127 17 32 110 27 110 -5 0 -8 9 -14 20 -14 20 0 27 24 12 46 -25 38 -136
48 -166 15z"/>
<path d="M1254 937 c-3 -9 -2 -22 2 -29 5 -7 11 -130 14 -273 4 -222 7 -260
20 -260 13 0 15 37 15 269 l0 268 42 -5 c58 -6 100 -39 113 -88 10 -35 9 -44
-7 -61 -25 -28 -67 -48 -101 -48 -32 0 -47 -21 -29 -39 6 -6 20 -11 30 -11 57
0 98 -56 146 -200 23 -70 36 -91 64 -107 43 -23 100 19 84 61 -9 22 -28 20
-34 -4 -3 -11 -13 -20 -23 -20 -18 0 -29 21 -80 157 -22 57 -41 91 -63 109
-24 21 -28 28 -17 32 8 3 30 20 49 39 31 31 33 37 27 75 -15 93 -72 140 -177
146 -56 4 -70 1 -75 -11z"/>
<path d="M2564 930 c-16 -16 8 -124 28 -128 26 -5 29 12 15 74 -13 59 -24 73
-43 54z"/>
<path d="M2336 860 c-26 -32 -33 -53 -61 -175 -19 -87 -45 -286 -39 -297 9
-13 32 -9 38 7 3 9 9 52 12 96 8 91 11 95 79 85 42 -7 45 -9 45 -39 1 -18 9
-61 19 -97 14 -51 22 -65 37 -65 25 0 30 37 9 69 -11 17 -19 64 -26 153 -13
176 -23 237 -42 267 -23 34 -39 33 -71 -4z m45 -22 c8 -28 25 -215 21 -220 -4
-3 -28 -4 -53 -1 l-46 5 19 82 c21 93 37 136 49 136 5 0 9 -1 10 -2z"/>
<path d="M44 329 c-4 -7 -9 -27 -11 -43 -2 -17 -8 -35 -13 -40 -11 -11 -13
-95 -4 -172 l7 -52 91 -7 c100 -7 159 8 170 43 8 24 -11 208 -24 231 -13 26
-24 28 -113 28 -53 0 -81 4 -87 12 -6 11 -9 11 -16 0z m106 -50 l68 -12 11
-43 c14 -55 14 -84 0 -84 -6 0 -9 -6 -6 -12 2 -7 10 -12 16 -11 15 4 14 -54
-1 -60 -7 -2 -24 4 -37 14 -13 11 -36 19 -52 19 -15 0 -31 5 -34 10 -4 6 14
10 46 10 29 0 49 3 46 6 -3 4 0 16 8 28 23 32 18 40 -11 17 -20 -16 -41 -21
-83 -21 l-56 0 0 75 c0 41 4 75 8 75 5 0 39 -5 77 -11z m-58 -199 c18 -11 47
-20 63 -20 17 0 37 -5 45 -11 11 -8 3 -9 -30 -4 -25 4 -60 8 -77 9 -18 0 -33
4 -33 8 0 3 -3 13 -6 22 -8 21 -1 20 38 -4z"/>
</g>
</svg>
