<?xml version="1.0" encoding="utf-8"?>
<!-- Generator: Adobe Illustrator 16.0.0, SVG Export Plug-In . SVG Version: 6.00 Build 0)  -->
<!DOCTYPE svg PUBLIC "-//W3C//DTD SVG 1.1 Basic//EN" "http://www.w3.org/Graphics/SVG/1.1/DTD/svg11-basic.dtd" [
	<!ENTITY ns_flows "http://ns.adobe.com/Flows/1.0/">
	<!ENTITY ns_extend "http://ns.adobe.com/Extensibility/1.0/">
	<!ENTITY ns_ai "http://ns.adobe.com/AdobeIllustrator/10.0/">
	<!ENTITY ns_graphs "http://ns.adobe.com/Graphs/1.0/">
]>
<svg version="1.1" baseProfile="basic" id="Layer_1" xmlns:x="&ns_extend;" xmlns:i="&ns_ai;" xmlns:graph="&ns_graphs;"
	 xmlns="http://www.w3.org/2000/svg" xmlns:xlink="http://www.w3.org/1999/xlink" xmlns:a="http://ns.adobe.com/AdobeSVGViewerExtensions/3.0/"
	 x="0px" y="0px" width="768px" height="139px" viewBox="0 0 768 139" xml:space="preserve">
<g>
	<path fill="none" stroke="#000000" stroke-width="2" stroke-miterlimit="10" d="M18.415,21.478
		c-2.61,13.78-2.447,28.933-3.823,43.062c-0.376,6.729-0.44,13.466-1.434,20.189c-0.99,6.387-2.61,13.78-2.363,20.182"/>
	<path fill="none" stroke="#000000" stroke-width="2" stroke-miterlimit="10" d="M17.484,21.805
		c4.638,0.382,11.778-1.907,17.654-1.512c6.186,0.396,16.679,3.529,19.082,10.96c4.811,14.525-12.591,21.766-21.612,26.39"/>
	<path fill="none" stroke="#000000" stroke-width="2" stroke-miterlimit="10" d="M33.866,55.636
		c6.367,13.53,10.223,30.739,15.66,44.598"/>
	<path fill="none" stroke="#000000" stroke-width="2" stroke-miterlimit="10" d="M24.741,71.036
		c-0.111,11.448-1.155,23.222-0.646,34.677c-4.653,0.964-9.917,1.25-14.262,2.553"/>
	<path fill="none" stroke="#000000" stroke-width="2" stroke-miterlimit="10" d="M23.503,71.023
		c5.163,10.152,7.524,21.961,11.441,32.774c4.663-1.976,10.847-1.579,16.126-3.211"/>
	<path fill="none" stroke="#000000" stroke-width="2" stroke-miterlimit="10" d="M22.845,107.045
		c1.563-1.668,3.433-2.996,5.609-3.986c-1.166-7.416,0.762-14.807-0.712-22.23"/>
	<path fill="none" stroke="#000000" stroke-width="2" stroke-miterlimit="10" d="M49.197,102.252
		c1.257-2.009,3.137-4.348,4.089-6.695c-1.733-12.812-9.055-23.658-12.339-36.148c5.9-1.963,10.585-6.294,13.431-12.665
		c1.587-4.025,3.524-12.424-0.156-15.827"/>
	<path fill="none" stroke="#000000" stroke-width="2" stroke-miterlimit="10" d="M26.352,32.664
		c-0.039,4.042-0.079,8.083-0.117,12.123"/>
	<path fill="none" stroke="#000000" stroke-width="2" stroke-miterlimit="10" d="M25.127,31.308
		c3.405,0.034,14.259-2.219,13.563,5.519c-0.348,4.039-9.661,6.978-12.762,7.621"/>
	<path fill="none" stroke="#000000" stroke-width="2" stroke-miterlimit="10" d="M29.035,43.132c0.336-2.692,0.981-5.38,1.623-7.729
		c2.479-0.314,5.567,0.391,6.784,2.422"/>
	<path fill="none" stroke="#000000" stroke-width="2" stroke-miterlimit="10" d="M69.396,24.421
		c-0.623,10.268-4.406,21.647-4.511,32.491c-0.681,15.971-2.933,31.932-5.706,47.315"/>
	<path fill="none" stroke="#000000" stroke-width="2" stroke-miterlimit="10" d="M58.67,102.508
		c5.274-2.801,11.029-1.032,16.796-0.977l0,0c-0.274-25.686,3.15-54.189,9.159-78.672c-4.714-0.617-9.967-0.098-14.702,1.568"/>
	<path fill="none" stroke="#000000" stroke-width="2" stroke-miterlimit="10" d="M76.522,100.969
		c-0.519-0.574,1.613-3.978,3.733-6.24"/>
	<path fill="none" stroke="#000000" stroke-width="2" stroke-miterlimit="10" d="M82.522,23.407
		c0.524,0.006,1.053-0.561,1.584-1.125c1.044,0.581,2.595,2.879,3.115,3.454l-0.52-0.575c-2.738,11.958-2.336,24.52-4.027,36.488
		c-1.672,10.256-4.402,21.073-3.981,31.922"/>
	<path fill="none" stroke="#000000" stroke-width="2" stroke-miterlimit="10" d="M97.716,25.268
		c2.043,5.728-1.812,24.525-2.414,32.51c-0.646,12.549-4.463,27.351-3.004,39.352"/>
	<path fill="none" stroke="#000000" stroke-width="2" stroke-miterlimit="10" d="M96.142,25.253
		c6.813,0.636,15.769-3.272,23.102-2.061c14.66,2.997,23.956,17.928,23.286,32.76c-0.801,28.53-26.663,44.829-51.304,43.449"/>
	<path fill="none" stroke="#000000" stroke-width="2" stroke-miterlimit="10" d="M108.631,35.646
		c-1.757,18.819-3.525,38.778-5.8,57.019"/>
	<path fill="none" stroke="#000000" stroke-width="2" stroke-miterlimit="10" d="M107.588,35.068
		c14.217-5.571,27.778,2.552,23.934,20.205c-3.308,16.521-16.53,27.808-29.198,35.675"/>
	<path fill="none" stroke="#000000" stroke-width="2" stroke-miterlimit="10" d="M107.065,35.061
		c2.081,1.731,3.621,5.172,5.171,7.468c-2.749,13.103-2.398,30.8-4.087,42.77"/>
	<path fill="none" stroke="#000000" stroke-width="2" stroke-miterlimit="10" d="M110.646,44.227
		c8.414-2.2,20.467-0.941,20.334,12.757"/>
	<path fill="none" stroke="#000000" stroke-width="2" stroke-miterlimit="10" d="M101.728,98.361
		c12.052,1.261,25.205-2.608,34.215-12.223c11.132-11.878,13.496-39.25,1.555-51.923"/>
	<path fill="none" stroke="#000000" stroke-width="2" stroke-miterlimit="10" d="M176.919,26.038
		c-22.482-7.638-49.099,86.274,7.789,62.287"/>
	<path fill="none" stroke="#000000" stroke-width="2" stroke-miterlimit="10" d="M175.5,64.264c8.402-1.06,18.381-2.105,26.28-5.454
		c-3.797,13.092-6.04,27.909-10.876,39.844l0,0c-2.624-0.023-5.246-0.05-7.868-0.074c0.039-3.994,0.602-7.983,0.646-12.549"/>
	<path fill="none" stroke="#000000" stroke-width="2" stroke-miterlimit="10" d="M174.309,24.87
		c9.447-0.479,16.083,18.42,3.5,17.728c1.672-10.258-5.665-10.899-11.49-5.249s-8.571,18.181-8.129,26.747
		c0.446,7.993,3.997,20.584,12.389,20.666c8.394,0.082,11.63-9.018,10.652-16.447c-2.629,0.545-5.241-0.621-7.343-0.073
		c0.015-1.709,0.027-2.852,0.568-4.558"/>
	<path fill="none" stroke="#000000" stroke-width="2" stroke-miterlimit="10" d="M200.73,58.801
		c2.083,1.732,3.109,4.025,3.607,6.885"/>
	<path fill="none" stroke="#000000" stroke-width="2" stroke-miterlimit="10" d="M189.85,99.217
		c1.572,0.015,4.731-1.095,5.784-1.654"/>
	<path fill="none" stroke="#000000" stroke-width="2" stroke-miterlimit="10" d="M204.88,63.976
		c-3.153,0.542-8.147,28.461-8.203,34.167"/>
	<path fill="none" stroke="#000000" stroke-width="2" stroke-miterlimit="10" d="M24.735,31.978
		c1.574,0.014,4.174,2.323,5.725,4.622"/>
	<path fill="none" stroke="#000000" stroke-width="2" stroke-miterlimit="10" d="M175.709,42.578
		c-4.097-10.314-11.567,2.741-13.201,9.003c-2.192,9.68-2.95,33.644,11.758,31.504"/>
	<path fill="none" stroke="#000000" stroke-width="2" stroke-miterlimit="10" d="M174.13,43.131
		c1.573,0.015,3.154-0.539,4.732-1.094"/>
	<path fill="none" stroke="#000000" stroke-width="2" stroke-miterlimit="10" d="M174.656,43.137
		c2.604,1.738,6.283,1.205,8.409-1.629"/>
	<path fill="none" stroke="#000000" stroke-width="2" stroke-miterlimit="10" d="M206.785,29.752
		c9.476-3.333,22.046-1.499,32.011-1.401"/>
	<path fill="none" stroke="#000000" stroke-width="2" stroke-miterlimit="10" d="M208.363,29.195
		c4.594,13.173-0.822,30.813-0.962,45.08c-0.049,5.135-1.161,11.404-0.679,15.975c1.5,7.436-0.055,5.705,6.758,6.345
		c7.338,0.642,15.222-0.994,22.575-2.066"/>
	<path fill="none" stroke="#000000" stroke-width="2" stroke-miterlimit="10" d="M237.753,27.771
		c0.509,1.716-0.044,4.564-0.066,6.848l-0.525-0.005c-7.348,0.5-14.693,0.427-22.051,2.068c0.451,7.424-0.669,14.833-0.217,22.256
		c5.25-0.519,10.501-1.038,15.747-0.987c2.507,12.01-6.918,10.205-15.323,11.267c-0.574,5.131-1.678,10.829-1.728,15.964
		c6.807,1.206,14.172-1.003,20.986-0.37c-0.04,3.996-0.077,7.991,0.407,11.992"/>
	<path fill="none" stroke="#000000" stroke-width="2" stroke-miterlimit="10" d="M215.099,37.825c1.032,1.721,2.594,2.878,3.627,4.6
		"/>
	<path fill="none" stroke="#000000" stroke-width="2" stroke-miterlimit="10" d="M214.784,70.353
		c1.568,0.585,2.082,1.732,3.118,2.884"/>
	<path fill="none" stroke="#000000" stroke-width="2" stroke-miterlimit="10" d="M215.794,74.357
		c4.741-2.237,11.02-0.465,15.763-2.701"/>
	<path fill="none" stroke="#000000" stroke-width="2" stroke-miterlimit="10" d="M228.466,65.919
		c1.556,1.729,2.583,4.023,3.617,5.741"/>
	<path fill="none" stroke="#000000" stroke-width="2" stroke-miterlimit="10" d="M229.084,56.223c5.207,4.044,1.48,9.716,1.943,16"
		/>
	<path fill="none" stroke="#000000" stroke-width="2" stroke-miterlimit="10" d="M218.213,41.278
		c-1.105,5.694-1.688,11.969-2.274,18.241"/>
	<path fill="none" stroke="#000000" stroke-width="2" stroke-miterlimit="10" d="M216.323,73.792
		c-0.033,3.425-0.072,7.417-0.105,10.843"/>
	<path fill="none" stroke="#000000" stroke-width="2" stroke-miterlimit="10" d="M216.121,40.686
		c5.246,0.054,13.107,0.699,18.368-0.961"/>
	<path fill="none" stroke="#000000" stroke-width="2" stroke-miterlimit="10" d="M236.644,34.037
		c-1.071,2.272-2.667,4.54-4.262,6.807"/>
	<path fill="none" stroke="#000000" stroke-width="2" stroke-miterlimit="10" d="M233.516,85.946
		c2.099,0.019,4.185,1.179,4.164,3.463"/>
	<path fill="none" stroke="#000000" stroke-width="2" stroke-miterlimit="10" d="M206.659,96.528
		c8.349,4.646,24.631,2.521,32.51,1.456"/>
	<path fill="none" stroke="#000000" stroke-width="2" stroke-miterlimit="10" d="M232.371,95.636c2.099,0.021,4.192,0.61,5.75,2.339
		"/>
	<path fill="none" stroke="#000000" stroke-width="2" stroke-miterlimit="10" d="M237.172,87.693
		c-0.034,3.42,0.453,7.421,0.949,10.281"/>
	<path fill="none" stroke="#000000" stroke-width="2" stroke-miterlimit="10" d="M248.221,27.552
		c4.29,9.038,3.685,21.205,6.018,31.282c2.796,12.728,4.618,25.447,7.412,38.178"/>
	<path fill="none" stroke="#000000" stroke-width="2" stroke-miterlimit="10" d="M260.212,94.88
		c2.904,1.614,12.631,1.71,15.067,1.204"/>
	<path fill="none" stroke="#000000" stroke-width="2" stroke-miterlimit="10" d="M274.298,97.135
		c4.904-4.186,8.882-13.146,11.356-17.355"/>
	<path fill="none" stroke="#000000" stroke-width="2" stroke-miterlimit="10" d="M284.189,80.295
		c4.828,3.752,9.593,13.853,12.947,19.178"/>
	<path fill="none" stroke="#000000" stroke-width="2" stroke-miterlimit="10" d="M294.705,99.45
		c4.857,0.575,9.737-0.968,14.602-0.919"/>
	<path fill="none" stroke="#000000" stroke-width="2" stroke-miterlimit="10" d="M308.825,97.998
		c4.43-5.25,10.477-26.889,14.465-36.906c3.508-10.549,9.447-21.076,11.495-31.642"/>
	<path fill="none" stroke="#000000" stroke-width="2" stroke-miterlimit="10" d="M334.78,29.981
		c-4.377-0.043-8.268-0.081-12.643-0.652"/>
	<path fill="none" stroke="#000000" stroke-width="2" stroke-miterlimit="10" d="M321.165,29.318
		c-8.417,15.266-13.5,37.976-17.556,54.869"/>
	<path fill="none" stroke="#000000" stroke-width="2" stroke-miterlimit="10" d="M246.762,27.537
		c3.393,1.093,8.264,0.611,10.698,0.105"/>
	<path fill="none" stroke="#000000" stroke-width="2" stroke-miterlimit="10" d="M256.508,25.514
		c5.177,18.044,6.931,37.644,12.6,55.163"/>
	<path fill="none" stroke="#000000" stroke-width="2" stroke-miterlimit="10" d="M269.112,80.146
		c5.384-3.651,9.875-15.248,12.354-19.989"/>
	<path fill="none" stroke="#000000" stroke-width="2" stroke-miterlimit="10" d="M280.965,61.74
		c4.377,0.044,9.257-1.498,13.138-0.401"/>
	<path fill="none" stroke="#000000" stroke-width="2" stroke-miterlimit="10" d="M293.129,61.329
		c4.311,6.923,7.633,15.421,12.436,21.819"/>
	<path fill="none" stroke="#000000" stroke-width="2" stroke-miterlimit="10" d="M256.976,27.638
		c2.902,1.615,5.313,3.755,7.719,6.426"/>
	<path fill="none" stroke="#000000" stroke-width="2" stroke-miterlimit="10" d="M263.262,31.402
		c3.266,14.32,3.101,31.255,7.827,45.588"/>
	<path fill="none" stroke="#000000" stroke-width="2" stroke-miterlimit="10" d="M292.643,61.324c2.432,0.023,5.339,1.11,6.79,2.183
		"/>
	<path fill="none" stroke="#000000" stroke-width="2" stroke-miterlimit="10" d="M298.463,62.969
		c1.911,3.722,5.273,7.988,7.188,11.183"/>
	<path fill="none" stroke="#000000" stroke-width="2" stroke-miterlimit="10" d="M275.285,95.558
		c2.421,1.079,5.848-1.005,8.279-0.981"/>
	<path fill="none" stroke="#000000" stroke-width="2" stroke-miterlimit="10" d="M282.101,95.093
		c1.98-3.687,2.995-7.911,5.457-11.06"/>
	<path fill="none" stroke="#000000" stroke-width="2" stroke-miterlimit="10" d="M306.87,99.039
		c3.404,0.032,10.244-3.078,10.238-2.547"/>
	<path fill="none" stroke="#000000" stroke-width="2" stroke-miterlimit="10" d="M333.315,30.493
		c0.952,2.128,1.899,4.786,3.338,6.915"/>
	<path fill="none" stroke="#000000" stroke-width="2" stroke-miterlimit="10" d="M336.182,35.816
		c0.414,7.412-5.546,20.055-7.568,27.975c-3.031,11.613-8.97,22.141-12.482,33.219"/>
	<path fill="none" stroke="#000000" stroke-width="2" stroke-miterlimit="10" d="M362.504,30.248
		c-26.772,1.86-34.71,67.936-6.537,71.914c32.552,4.019,52.235-69.352,13.832-71.842c-3.891-0.036-7.782-0.074-11.202,1.48"/>
	<path fill="none" stroke="#000000" stroke-width="2" stroke-miterlimit="10" d="M364.709,53.558
		c-7.312,1.515-13.271,14.16-6.524,20.576c10.117,10.153,22.072-18.837,6.038-20.582"/>
	<path fill="none" stroke="#000000" stroke-width="2" stroke-miterlimit="10" d="M368.083,56.765
		c-7.281-1.659-14.197,9.388-6.016,18.465"/>
	<path fill="none" stroke="#000000" stroke-width="2" stroke-miterlimit="10" d="M355.978,101.102
		c30.027,13.523,53.477-47.111,26.897-64.833"/>
	<path fill="none" stroke="#000000" stroke-width="2" stroke-miterlimit="10" d="M441.424,53.475
		c-4.379-14.849-16.976-24.932-30.083-13.413c-9.706,8.53-13.833,25.24-12.733,38.278c1.438,17.053,15.905,29.91,30.771,18.592
		c10.475-7.977,15.381-20.346,13.889-34.204C442.944,59.727,442.337,56.571,441.424,53.475z"/>
	<path fill="none" stroke="#000000" stroke-width="2" stroke-miterlimit="10" d="M425.987,54.682
		c-9.634-9.62-18.563,8.287-12.817,17.338c8.137,13.84,21.516-11.434,9.914-18.956"/>
	<path fill="none" stroke="#000000" stroke-width="2" stroke-miterlimit="10" d="M422.107,53.586
		c-8.25-2.198-8.938,18.434-2.178,23.793"/>
	<path fill="none" stroke="#000000" stroke-width="2" stroke-miterlimit="10" d="M427.15,35.112
		c12.174-1.469,19.254,20.827,20.119,31.949c2.215,22.248-13.441,31.624-31.488,36.74"/>
	<path fill="none" stroke="#000000" stroke-width="2" stroke-miterlimit="10" d="M458.816,30.127
		c0.234,25.935-5.859,52.336-7.083,78.256"/>
	<path fill="none" stroke="#000000" stroke-width="2" stroke-miterlimit="10" d="M457.848,29.586
		c20.869,4.967,43.666,11.54,37.547,40.588c-4.594,22.184-20.278,34.731-39.786,39.834"/>
	<path fill="none" stroke="#000000" stroke-width="2" stroke-miterlimit="10" d="M467.939,42.387
		c-0.569,8.464-2.598,16.91-3.165,25.372c-0.565,7.933-3.095,17.964-1.706,25.385"/>
	<path fill="none" stroke="#000000" stroke-width="2" stroke-miterlimit="10" d="M466.939,45.024
		c10.215,0.099,21.299,10.792,19.721,22.948c-1.588,13.217-15.284,21.022-25.533,24.626"/>
	<path fill="none" stroke="#000000" stroke-width="2" stroke-miterlimit="10" d="M466.957,43.438
		c2.892,2.674,3.797,9.563,4.732,13.276"/>
	<path fill="none" stroke="#000000" stroke-width="2" stroke-miterlimit="10" d="M470.734,55.117
		c0.383,10.587-2.164,22.207-2.27,33.317"/>
	<path fill="none" stroke="#000000" stroke-width="2" stroke-miterlimit="10" d="M470.251,54.58
		c5.834,0.589,12.601,4.887,14.976,10.734"/>
	<path fill="none" stroke="#000000" stroke-width="2" stroke-miterlimit="10" d="M494.621,49.527
		c14.791,29.779-6.421,60.27-36.572,59.447"/>
</g>
<path fill="none" stroke="#000000" stroke-width="2" stroke-miterlimit="10" d="M500.23,99.436
	c2.438,8.715-2.8,17.641-10.386,21.146"/>
<g>
	<g>
		<path fill="none" stroke="#000000" stroke-width="2" stroke-miterlimit="10" d="M581.173,36.865
			c-13.099-24.467-44.643,8.887-49.995,22.409c-5.354,13.521-11.421,35.656,3.16,44.802c15.563,10.071,36.319,0.896,45.489-12.731
			c9.145-14.582,16.029-75.9-17.981-62.535c-12.3,4.164-13.756,20.441-4.926,28.791c13.76,13.943,43.926-0.271,53.123-12.944"/>
		<path fill="none" stroke="#000000" stroke-width="2" stroke-miterlimit="10" d="M555.809,86.284
			c31.094-15.194,5.891,39.95,40.803,24.649"/>
		<path fill="none" stroke="#000000" stroke-width="2" stroke-miterlimit="10" d="M590.059,81.506
			c20.678-12.037,11.826,13.042,16.918,24.362c8.455-5.012,10.945-18.453,16.433-27.202l0,0
			c-12.829,19.461,10.796,44.589,20.626,20.436"/>
		<path fill="none" stroke="#000000" stroke-width="2" stroke-miterlimit="10" d="M640.031,92.528
			c25.16,11.716,17.361-28.182,8.457-5.011c-7.977,22.19,28.449,26.902,34.543,5.721c3.445-13.466-8.246-21.736-8.723-4.531
			c-0.768,6.707,3.236,13.281,10.926,14.978c12.459,1.562,12.086-11.8,18.554-19.62c1.169,7.607,2.36,16.171-0.29,23.887
			l0.956-0.027c1.669-8.643,5.167-20.203,14.603-24.285c4.032,7.527-3.15,23.965,7.454,27.488
			c10.604,3.525,19.669-13.919,21.364-21.607"/>
		<path fill="none" stroke="#000000" stroke-width="2" stroke-miterlimit="10" d="M747.582,79.021
			c-9.252,10.764,9.943,14.049,11.219,25.474c0.479,17.179-25.104,24.579-21.767,7.296c6.653-1.143,13.417,1.534,21.022,0.365"/>
	</g>
	<path fill="none" stroke="#000000" stroke-width="2" stroke-miterlimit="10" d="M590.889,83.782
		c21.238-9.636,3.611,24.341,17.511,23.219"/>
	<path fill="none" stroke="#000000" stroke-width="2" stroke-miterlimit="10" d="M649.371,95.104
		c4.174,9.416,20.062,9.46,27.51,4.854"/>
	<path fill="none" stroke="#000000" stroke-width="2" stroke-miterlimit="10" d="M745.943,78.723
		c1.674-1.27,4.104-1.825,5.381,0.094c1.545,2.891-2.295,5.441-3.957,7.197"/>
	<path fill="none" stroke="#000000" stroke-width="2" stroke-miterlimit="10" d="M557.23,87.871
		c21.791-6.34,10.77,43.633,40.855,26.557"/>
	<path fill="none" stroke="#000000" stroke-width="2" stroke-miterlimit="10" d="M550.088,120.826
		c0.053,1.908-2.836,1.036-2.756,3.898c0.953-0.027,1.908-0.055,2.863-0.081c2.728-4.851-2.018-3.764-2.07-5.672"/>
	<path fill="none" stroke="#000000" stroke-width="2" stroke-miterlimit="10" d="M566.338,121.329c0,0,1.908-0.053-1.883,1.007
		c-0.026-0.953,0.08,2.863,0.055,1.908c3.871,1.805,2.836-1.033,4.718-2.042"/>
	<path fill="none" stroke="#000000" stroke-width="2" stroke-miterlimit="10" d="M582.669,124.693
		c-1.909,0.053-1.989-2.811-3.817,0.105c4.852,2.73,5.699-1.113,5.699-1.113"/>
	<path fill="none" stroke="#000000" stroke-width="2" stroke-miterlimit="10" d="M601.756,124.16
		c-1.91,0.053-1.988-2.811-3.818,0.106c3.871,1.802,4.746-1.087,6.628-2.095"/>
	<path fill="none" stroke="#000000" stroke-width="2" stroke-miterlimit="10" d="M622.727,122.619
		c-1.91,0.055-3.818,0.107-5.727,0.161C620.022,128.426,620.843,123.628,622.727,122.619"/>
	<path fill="none" stroke="#000000" stroke-width="2" stroke-miterlimit="10" d="M641.785,121.134
		c-0.954,0.026-2.862,0.08-5.646,3.023c3.87,1.801,5.699-1.115,5.673-2.069"/>
	<path fill="none" stroke="#000000" stroke-width="2" stroke-miterlimit="10" d="M656.128,121.688
		c-0.928,0.981-2.836,1.034-4.718,2.043c4.903,4.639,4.744-1.088,5.698-1.115"/>
	<path fill="none" stroke="#000000" stroke-width="2" stroke-miterlimit="10" d="M669.516,122.27
		c-1.883,1.009-2.89-0.875-3.764,2.015c3.87,1.802,6.68-0.187,8.562-1.192"/>
	<path fill="none" stroke="#000000" stroke-width="2" stroke-miterlimit="10" d="M689.637,124.573
		c-2.863,0.081-4.852-2.729-5.672,2.068c1.935,0.902,3.764-2.015,4.718-2.041"/>
	<path fill="none" stroke="#000000" stroke-width="2" stroke-miterlimit="10" d="M704.907,124.147
		c-1.909,0.054-3.817,0.106-5.728,0.16l0.027,0.954C702.123,127.091,703.951,124.174,704.907,124.147"/>
	<path fill="none" stroke="#000000" stroke-width="2" stroke-miterlimit="10" d="M715.403,123.855
		c2.892,0.872-0.026-0.956-2.862,0.079c1.936,0.9,4.8,0.82,5.779,1.748c0.928-0.98,0.849-3.843-0.105-3.816"/>
	<path fill="none" stroke="#000000" stroke-width="2" stroke-miterlimit="10" d="M736.534,128.041
		c-1.91,0.053-3.872-1.803-6.708-0.77C732.77,130.055,733.67,128.12,736.534,128.041"/>
</g>
<g>
	<path fill="none" stroke="#000000" stroke-width="2" stroke-miterlimit="10" d="M632.451,62.509
		c2.462-7.172,4.014-15.207,6.478-22.38c6.409,6.925,12.917,17.398,21.101,24.275c2.414-8.947,2.979-20.507,5.443-27.679"/>
	<path fill="none" stroke="#000000" stroke-width="2" stroke-miterlimit="10" d="M676.095,35.54
		c3.722,6.113,8.356,13.085,14.642,15.575"/>
	<path fill="none" stroke="#000000" stroke-width="2" stroke-miterlimit="10" d="M700.074,35.759
		c-5.963,9.046-15.5,17.303-17.864,28.025"/>
	<path fill="none" stroke="#000000" stroke-width="2" stroke-miterlimit="10" d="M722.355,38.69
		c-17.894-4.829-23.015,34.384,5.006,20.282"/>
</g>
</svg>
